<svg xmlns="http://www.w3.org/2000/svg" viewBox="0 0 79.25 95.64"><defs><style>.cls-1{isolation:isolate;}.cls-2,.cls-3,.cls-7,.cls-8{fill:#fff;}.cls-2{opacity:0.8;}.cls-4{fill:#f2f2f2;opacity:0.9;}.cls-5{opacity:0.06;}.cls-5,.cls-6,.cls-9{mix-blend-mode:multiply;}.cls-6{opacity:0.14;}.cls-7{opacity:0.3;}.cls-7,.cls-8{mix-blend-mode:screen;}.cls-8{opacity:0.5;}.cls-9{opacity:0.2;}</style></defs><g class="cls-1"><g id="Layer_2" data-name="Layer 2"><g id="Camada_1" data-name="Camada 1"><path class="cls-2" d="M79.21,56.89c0,.22,0,.44,0,.65s0,.27,0,.41c0,.58-.07,1.16-.12,1.75v.13c0,.26-.07.53-.09.78s0,.18,0,.27c-.05.38-.1.77-.17,1.16a0,0,0,0,1,0,0c-.08.65-.2,1.28-.33,1.92,0,0,0,0,0,0,0,.28-.12.55-.19.84-.17.76-.36,1.53-.58,2.28-.16.52-.31,1-.49,1.56-.12-.36-.24-.71-.37-1L76.51,67h0a.37.37,0,0,0-.07-.14l-.06-.16c-.13-.35-.27-.68-.43-1a3.89,3.89,0,0,0-.18-.41h0a.47.47,0,0,0-.07-.12h0a.33.33,0,0,0,0-.15c-.14-.32-.3-.65-.47-1a2.42,2.42,0,0,0-.12-.23.93.93,0,0,0-.1-.2c-.08-.17-.17-.35-.26-.51s-.23-.42-.35-.62-.11-.21-.17-.32,0,0,0,0-.12-.2-.18-.31c-.22-.41-.47-.81-.73-1.21s-.61-1-.93-1.44a1.24,1.24,0,0,1-.17-.23c-.3-.43-.61-.86-.93-1.27s-.55-.71-.84-1.06c-.14-.18-.28-.36-.44-.53s-.19-.23-.3-.35c-.23-.28-.49-.57-.75-.85l-.14-.16c-.37-.4-.74-.78-1.13-1.17l-28.06-28-28,28.07c-.56.56-1.09,1.13-1.61,1.7-.29.34-.59.69-.87,1l-.3.35c-.35.43-.69.87-1,1.31l-.27.38c-.17.22-.32.45-.49.68s-.25.37-.36.55a2,2,0,0,0-.18.26c-.34.52-.67,1-1,1.58-.16.26-.3.51-.44.76a.75.75,0,0,1-.09.15c-.15.26-.27.53-.41.79s-.35.67-.52,1a.49.49,0,0,0-.08.18c-.05.09-.09.18-.13.27a.8.8,0,0,0-.08.16c0,.1-.1.19-.14.28-.11.25-.22.48-.31.73s-.19.41-.27.63l-.1.22s0,0,0,0c-.3.74-.57,1.47-.8,2.21-.18-.52-.34-1-.5-1.56l-.3-1c-.1-.36-.19-.72-.27-1.1s-.2-.82-.28-1.24-.17-.83-.23-1.26-.14-.83-.2-1.26-.09-.72-.13-1.06c0-.13,0-.25,0-.38,0-.36-.06-.74-.09-1.1h0c0-.39,0-.77-.07-1.15,0-.54,0-1,0-1.59,0-.74,0-1.51.07-2.26A39.39,39.39,0,0,1,11.55,28.06L39.48,0l0,0L67.58,28A39,39,0,0,1,73,34.72v0a39.17,39.17,0,0,1,6.12,18.93A31.21,31.21,0,0,1,79.21,56.89Z"/><path class="cls-3" d="M67.13,84.52A39.57,39.57,0,0,1,17.84,89.1L17.73,89a38.89,38.89,0,0,1-5.52-4.42l1.08-1.08L39.63,57.12,66.21,83.6h0l.09.09Z"/><path class="cls-4" d="M77.15,68.72A39.15,39.15,0,0,1,71.5,79.59c-.24.31-.47.62-.72.93l-.73.9c-.5.58-1,1.16-1.55,1.73-.26.29-.53.56-.81.85a5.44,5.44,0,0,1-.55.52h0l-.83-.82-.09-.09h0L39.63,57.12,13.29,83.54l-1.08,1.08a6.89,6.89,0,0,1-.56-.52,38.27,38.27,0,0,1-3.81-4.39A38.76,38.76,0,0,1,2.15,68.86c.23-.74.5-1.47.8-2.21,0,0,0,0,0,0l.1-.22c.08-.22.17-.42.27-.63Q3.65,65,4,64.32c.18-.4.39-.8.6-1.19.29-.57.6-1.14.94-1.7s.64-1.06,1-1.58l.06-.09c.31-.49.65-1,1-1.44L7.81,58c.35-.47.71-.93,1.07-1.39l0,0q.52-.65,1.08-1.29c.52-.57,1-1.14,1.61-1.7l28-28.07,28.06,28a38.61,38.61,0,0,1,3.6,4.12,39.77,39.77,0,0,1,4.39,7.29.46.46,0,0,1,.08.19.47.47,0,0,1,.07.12h0a3.89,3.89,0,0,1,.18.41c.16.34.3.67.43,1a2.71,2.71,0,0,1,.13.3h0l.27.73C76.91,68,77,68.36,77.15,68.72Z"/><path class="cls-5" d="M39.63,57.12,12.21,84.63l-.56-.53a37.53,37.53,0,0,1-3.81-4.4Z"/><path class="cls-5" d="M39.57,25.51l-28,28.07c-.56.56-1.09,1.13-1.61,1.7-.29.35-.59.69-.87,1l-.3.35c-.35.43-.69.87-1,1.31l-.27.38c-.17.22-.34.45-.49.68s-.25.37-.36.55a2,2,0,0,0-.18.26c-.34.52-.67,1-1,1.58-.16.24-.3.51-.44.76a.75.75,0,0,1-.09.15c-.15.26-.29.53-.41.79s-.35.67-.52,1a.49.49,0,0,0-.08.18c-.05.09-.09.18-.13.27a.8.8,0,0,0-.08.16l-.45,1c-.1.21-.19.41-.27.63-.33.82-.64,1.64-.91,2.47-.18-.52-.34-1-.5-1.56l-.3-1c-.1-.36-.19-.72-.27-1.1s-.2-.82-.28-1.24-.17-.83-.23-1.26-.14-.83-.2-1.26-.09-.72-.13-1.06c0-.13,0-.25,0-.38,0-.36-.06-.74-.09-1.1h0c0-.39,0-.77-.07-1.15,0-.54,0-1,0-1.59,0-.74,0-1.51.07-2.26l.43-.31L34,29.53Z"/><path class="cls-5" d="M71.5,79.59c-.24.31-.47.62-.72.93l-.73.9c-.5.58-1,1.16-1.55,1.73-.26.29-.53.58-.8.85h0a5.44,5.44,0,0,1-.55.52h0l-.91-.92s0,0,0,0,0,0-.07-.08L39.63,57.12,45,60.89l25.47,18Z"/><path class="cls-5" d="M78.22,64.88c-.17.76-.36,1.53-.58,2.28-.16.52-.31,1-.49,1.56-.12-.36-.24-.71-.37-1s-.18-.49-.28-.73-.08-.2-.12-.31c-.13-.35-.27-.68-.43-1a3.89,3.89,0,0,0-.18-.41.4.4,0,0,0-.07-.13.46.46,0,0,0-.08-.19,40,40,0,0,0-8-11.41h0l-28.06-28,5.56,4L78.28,53.05l.87.63h0c0,.75.07,1.52.08,2.26,0,.31,0,.63,0,.94s0,.43,0,.65c0,.74-.08,1.49-.16,2.23,0,.37-.07.74-.11,1.11s-.1.78-.16,1.16c-.1.67-.22,1.33-.36,2C78.35,64.31,78.29,64.6,78.22,64.88Z"/><path class="cls-6" d="M66.31,83.7,39.63,57.12,13.29,83.54c2-2.39,4.12-4.67,6.19-7s4.2-4.59,6.34-6.84,4.3-4.5,6.45-6.74l6.54-6.66.81-.82.82.82L47.06,63c2.18,2.25,4.38,4.48,6.54,6.77s4.3,4.57,6.43,6.88S64.26,81.29,66.31,83.7Z"/><path class="cls-6" d="M75.76,65.19a39.5,39.5,0,0,0-8.13-11.71l-28.06-28-28,28.08A39.47,39.47,0,0,0,3,66.61a37.82,37.82,0,0,1,6.88-12c.75-.89,1.58-1.73,2.37-2.58l2.36-2.52,4.8-5c6.38-6.66,12.87-13.24,19.37-19.79l.81-.82.82.81,9.51,9.57c3.13,3.22,6.31,6.41,9.42,9.67L64,48.78l2.32,2.45c.76.83,1.56,1.64,2.32,2.46A37.78,37.78,0,0,1,75.76,65.19Z"/><path class="cls-7" d="M66.31,83.7c-2.42-2-4.73-4.18-7.07-6.25s-4.63-4.25-6.91-6.4-4.53-4.34-6.8-6.52l-5.9-5.8L33.82,64.5c-2.25,2.15-4.45,4.34-6.72,6.46s-4.53,4.26-6.83,6.38-4.6,4.18-7,6.2L39.63,57.12Z"/><path class="cls-7" d="M75.76,65.19a41.13,41.13,0,0,0-7.92-10.71c-3.26-3.08-6.56-6.16-9.79-9.29s-6.46-6.26-9.69-9.39l-8.79-8.68q-9.39,9.4-18.92,18.64l-5,4.82c-1.67,1.59-3.4,3.16-5,4.78A40.57,40.57,0,0,0,3,66.61a39.47,39.47,0,0,1,8.62-13l28-28.08,28.06,28A39.5,39.5,0,0,1,75.76,65.19Z"/><path class="cls-8" d="M39.48,0c-.34.42-3.18,3.84-7.55,8.61-2.31,2.57-5.05,5.5-8,8.63-1.5,1.54-3,3.16-4.6,4.77L14.5,26.94c-.8.81-1.67,1.62-2.42,2.4S10.56,31,9.86,31.81a39.47,39.47,0,0,0-3.72,5.25A42.34,42.34,0,0,0,1.68,47.59c-.46,1.64-.73,3.18-1,4.54-.08.49-.14,1-.19,1.4-.1.8-.18,1.53-.23,2.17C.2,56.67.18,57.49.14,58s0,.75,0,.82c0-.39,0-.77-.07-1.15,0-.54,0-1,0-1.59,0-.74,0-1.51.07-2.26A39.39,39.39,0,0,1,11.55,28.06Z"/><path class="cls-9" d="M78.22,64.88c-.17.76-.36,1.53-.58,2.28-.16.52-.31,1-.49,1.56A39.15,39.15,0,0,1,71.5,79.59c-.24.31-.47.62-.72.93l-.73.9c-.5.58-1,1.16-1.55,1.73-.26.29-.53.58-.8.85h0a5.44,5.44,0,0,1-.55.52h0A39.57,39.57,0,0,1,17.84,89.1l.78.44c.7.39,1.74.91,3.07,1.54a40.23,40.23,0,0,0,37-1.77,39.07,39.07,0,0,0,7.48-5.7s0,0,0,0h0s0,0,0,0l.26-.25a38,38,0,0,0,4-4.5,36,36,0,0,0,2.07-3.08,38.69,38.69,0,0,0,3.92-8.62,1.52,1.52,0,0,0,.06-.2h0a41.45,41.45,0,0,0,1.67-8.5,40.81,40.81,0,0,0,.1-5.39c0-.89-.12-1.77-.21-2.61A40.1,40.1,0,0,0,75,38.77c-.63-1.34-1.1-2.4-1.49-3.08L73,34.75a39.17,39.17,0,0,1,6.12,18.93h0c0,.75.07,1.52.08,2.26,0,.31,0,.63,0,.94s0,.43,0,.65c0,.74-.08,1.49-.16,2.23,0,.37-.07.74-.11,1.11s-.1.78-.16,1.16c-.1.67-.22,1.33-.36,2C78.35,64.31,78.29,64.6,78.22,64.88Z"/></g></g></g></svg>