<?xml version="1.0" standalone="no"?>
<!DOCTYPE svg PUBLIC "-//W3C//DTD SVG 20010904//EN"
 "http://www.w3.org/TR/2001/REC-SVG-20010904/DTD/svg10.dtd">
<svg version="1.0" xmlns="http://www.w3.org/2000/svg"
 width="441.000000pt" height="216.000000pt" viewBox="0 0 441.000000 216.000000"
 preserveAspectRatio="xMidYMid meet">

<g transform="translate(0.000000,216.000000) scale(0.100000,-0.100000)"
fill="#000000" stroke="none">
<path d="M1067 1753 c-2 -4 -21 -51 -42 -103 -93 -234 -158 -327 -368 -523
-201 -188 -197 -183 -197 -211 0 -38 119 -132 293 -230 26 -15 65 -45 88 -68
31 -32 43 -38 52 -29 17 17 -37 63 -144 123 -124 68 -258 168 -266 198 -5 21
3 32 58 79 112 96 333 324 372 384 58 88 178 369 164 384 -3 2 -7 1 -10 -4z"/>
<path d="M2850 1461 c-77 -48 -158 -130 -216 -218 l-56 -84 -43 2 c-25 2 -47
0 -51 -4 -4 -4 14 -7 40 -7 35 0 47 -4 43 -12 -44 -112 -62 -147 -78 -151 -11
-3 -19 -10 -19 -16 0 -6 8 -8 18 -5 15 5 15 4 2 -8 -26 -22 -34 -303 -11 -347
12 -21 11 -26 -5 -38 -16 -12 -16 -13 8 -13 17 0 34 -11 51 -33 43 -56 195
-117 292 -117 84 0 178 32 273 91 48 30 18 23 -52 -12 -96 -48 -196 -67 -281
-52 -118 20 -252 98 -215 124 12 9 12 10 -3 5 -29 -9 -67 83 -67 165 0 75 16
170 29 179 5 3 11 23 14 45 l4 40 1 -42 c1 -24 6 -43 11 -43 6 0 12 19 14 43
l4 42 1 -42 c1 -24 6 -43 12 -43 5 0 8 11 7 25 -1 13 3 24 8 24 6 0 9 -11 8
-25 -1 -13 2 -24 8 -24 5 0 9 5 9 12 0 6 9 3 20 -7 16 -15 22 -15 35 -5 34 28
3 96 -33 74 -16 -11 -62 3 -62 19 0 5 -4 6 -9 2 -24 -14 -20 21 8 80 29 63 31
65 68 65 62 0 86 -19 100 -75 l11 -50 1 53 c1 73 -21 95 -89 87 -28 -3 -50 -2
-50 3 0 5 23 42 51 83 94 137 253 258 272 207 2 -7 8 -10 12 -6 14 13 -4 38
-27 38 -13 0 -43 -13 -68 -29z m-190 -510 c0 -23 -16 -36 -25 -21 -9 14 1 40
15 40 5 0 10 -9 10 -19z"/>
<path d="M1950 1441 c-82 -26 -440 -189 -440 -201 0 -4 23 -17 52 -31 28 -13
56 -28 63 -34 6 -5 31 -20 56 -33 25 -13 73 -45 107 -73 61 -49 62 -50 63
-102 0 -41 2 -47 9 -29 15 36 57 28 51 -10 0 -5 6 -8 14 -8 8 0 15 -4 15 -8 0
-11 -56 -52 -70 -52 -6 0 -19 -7 -27 -16 -15 -15 -18 -14 -33 7 -11 14 -23 20
-34 16 -23 -9 -20 -43 6 -61 16 -12 19 -19 11 -27 -8 -8 -13 -8 -17 0 -4 6
-12 11 -18 11 -7 0 -6 -6 2 -15 14 -17 46 -20 55 -5 4 6 12 4 22 -5 13 -14 17
-14 32 -1 13 11 18 12 28 1 13 -14 63 -9 63 7 0 5 7 3 15 -6 25 -25 19 -81
-12 -105 -29 -24 -26 -38 6 -22 27 15 42 43 50 100 5 36 10 45 24 43 9 -2 17
2 17 8 0 5 -6 10 -14 10 -8 0 -28 21 -45 47 -29 43 -30 47 -13 59 9 7 23 14
30 14 6 0 12 11 12 25 0 14 5 25 10 25 6 0 10 -11 10 -25 0 -14 5 -25 11 -25
6 0 9 14 7 33 -2 24 -8 33 -25 35 -19 3 -23 -1 -23 -22 0 -14 -4 -26 -8 -26
-5 0 -8 10 -8 23 1 22 -1 23 -71 26 -13 1 -23 7 -23 16 0 8 -8 15 -18 15 -10
0 -31 14 -47 30 -38 40 -143 109 -229 152 l-69 35 34 19 c44 26 383 174 398
174 6 0 11 5 11 10 0 11 -5 11 -40 1z m40 -470 c3 -1 -6 -7 -20 -14 -16 -9
-27 -10 -32 -3 -13 19 6 26 52 17z m0 -31 c0 -5 -5 -10 -11 -10 -5 0 -7 5 -4
10 3 6 8 10 11 10 2 0 4 -4 4 -10z m-33 -74 c-3 -8 1 -17 8 -20 9 -3 12 -12 8
-21 -5 -13 -7 -14 -14 -3 -6 9 -9 4 -9 -16 0 -16 -3 -26 -7 -23 -3 4 -12 2
-19 -4 -8 -7 -14 -7 -19 1 -11 17 3 40 20 34 8 -3 15 -2 15 4 0 18 -34 24 -46
7 -9 -12 -14 -13 -20 -4 -4 7 -2 15 4 17 6 2 22 12 34 22 27 23 52 26 45 6z
m-151 -44 c-9 -9 -37 8 -31 18 5 8 11 7 21 -1 8 -6 12 -14 10 -17z m56 -37
c-12 -22 -27 -2 -18 22 5 12 10 13 17 6 7 -7 8 -17 1 -28z"/>
<path d="M1690 1180 c0 -5 5 -10 11 -10 5 0 7 5 4 10 -3 6 -8 10 -11 10 -2 0
-4 -4 -4 -10z"/>
<path d="M1393 1173 c-16 -3 -23 -11 -23 -28 0 -18 4 -23 15 -19 8 4 15 11 15
16 0 6 6 8 14 5 8 -3 17 0 19 8 6 13 -1 26 -12 24 -3 -1 -16 -4 -28 -6z"/>
<path d="M2268 1153 c7 -3 16 -2 19 1 4 3 -2 6 -13 5 -11 0 -14 -3 -6 -6z"/>
<path d="M2408 1153 c12 -2 30 -2 40 0 9 3 -1 5 -23 4 -22 0 -30 -2 -17 -4z"/>
<path d="M1480 1021 c0 -5 7 -11 15 -15 10 -3 15 -20 16 -48 l1 -43 9 45 c5
25 13 46 19 48 23 8 7 22 -25 22 -19 0 -35 -4 -35 -9z"/>
<path d="M1712 1000 c-16 -26 -15 -33 3 -26 8 3 15 2 15 -3 0 -5 -9 -11 -19
-14 -14 -3 -21 2 -25 18 -4 16 -13 22 -36 23 -17 0 -33 -5 -35 -11 -12 -41
-14 -67 -5 -67 5 0 10 14 10 30 0 41 20 38 21 -2 2 -28 2 -29 6 -8 7 41 23 48
23 11 0 -24 4 -32 14 -28 7 3 18 1 23 -4 5 -5 17 -7 26 -3 19 7 24 74 6 74 -6
0 -9 7 -5 15 8 22 -7 18 -22 -5z m18 -60 c0 -5 -5 -10 -11 -10 -5 0 -7 5 -4
10 3 6 8 10 11 10 2 0 4 -4 4 -10z"/>
<path d="M2247 1002 c-20 -22 -22 -52 -4 -76 15 -21 48 -18 55 4 5 13 3 13
-12 0 -16 -13 -20 -12 -32 5 -18 24 -18 39 1 55 12 10 18 10 30 0 18 -15 20 1
3 18 -16 16 -22 15 -41 -6z"/>
<path d="M1546 984 c-18 -46 9 -87 38 -59 19 19 21 46 4 63 -17 17 -35 15 -42
-4z m34 -24 c0 -11 -4 -20 -10 -20 -5 0 -10 9 -10 20 0 11 5 20 10 20 6 0 10
-9 10 -20z"/>
<path d="M1773 993 c-18 -6 -16 -32 2 -39 8 -4 15 -11 15 -16 0 -6 -7 -7 -16
-4 -10 4 -14 1 -12 -6 7 -20 37 -21 45 -2 4 10 0 22 -10 29 -18 13 -24 30 -7
20 6 -3 10 -2 10 4 0 13 -12 19 -27 14z"/>
<path d="M2087 984 c-4 -4 -7 -20 -7 -36 0 -31 22 -47 43 -29 10 7 17 7 25 -1
20 -20 44 -1 40 34 -4 43 -32 49 -50 11 -17 -35 -48 -44 -48 -13 0 18 4 21 21
17 13 -3 19 -1 16 6 -4 14 -30 21 -40 11z m93 -35 c0 -10 -7 -19 -15 -19 -15
0 -21 31 -9 43 11 10 24 -3 24 -24z"/>
<path d="M2327 983 c-13 -12 -7 -22 11 -17 11 4 8 -1 -8 -15 -19 -15 -22 -23
-14 -31 12 -12 45 -10 45 3 -1 4 -1 21 -1 37 0 28 -17 40 -33 23z m23 -47 c0
-3 -4 -8 -10 -11 -5 -3 -10 -1 -10 4 0 6 5 11 10 11 6 0 10 -2 10 -4z"/>
<path d="M2382 948 c1 -37 2 -39 5 -10 5 40 21 41 34 2 11 -30 29 -41 29 -17
0 6 3 23 6 37 6 24 6 24 -8 6 -14 -18 -15 -18 -21 3 -3 13 -13 21 -26 21 -18
0 -21 -6 -19 -42z"/>
<path d="M2079 838 c-1 -13 -2 -35 -3 -50 -1 -20 4 -30 17 -34 39 -12 72 59
42 90 -24 24 -55 21 -56 -6z m39 3 c19 -12 11 -65 -10 -69 -15 -3 -18 4 -18
37 0 42 5 47 28 32z"/>
<path d="M2287 843 c-10 -9 -8 -65 2 -81 5 -8 8 7 10 38 1 50 0 56 -12 43z"/>
<path d="M2180 793 c0 -42 3 -41 18 5 9 26 8 32 -4 32 -10 0 -14 -11 -14 -37z"/>
<path d="M2227 823 c-4 -3 -7 -19 -7 -35 0 -32 24 -48 43 -28 9 9 8 11 -7 8
-10 -1 -21 3 -23 10 -3 7 4 12 16 12 25 0 28 25 5 34 -19 7 -19 7 -27 -1z m30
-19 c-3 -3 -12 -4 -19 -1 -8 3 -5 6 6 6 11 1 17 -2 13 -5z"/>
<path d="M2315 810 c-15 -46 32 -86 50 -42 7 16 8 15 15 -3 7 -17 9 -14 9 13
1 17 6 32 11 32 6 0 10 5 10 10 0 6 -7 10 -15 10 -8 0 -15 -7 -15 -17 0 -15
-1 -15 -18 0 -25 22 -39 21 -47 -3z m35 -19 c0 -11 -4 -22 -9 -25 -11 -7 -23
22 -15 35 9 16 24 10 24 -10z"/>
<path d="M1366 761 c-19 -21 -12 -28 13 -12 7 5 12 14 9 21 -2 7 -10 4 -22 -9z"/>
<path d="M3135 693 c-19 -27 -35 -51 -35 -55 0 -17 20 -6 39 21 12 16 29 28
38 27 13 -1 19 7 21 27 5 43 -23 34 -63 -20z"/>
<path d="M3230 731 c0 -6 4 -13 10 -16 6 -4 4 -17 -5 -35 -8 -16 -15 -31 -15
-35 0 -12 38 -4 50 10 11 13 10 14 -4 9 -14 -6 -16 -1 -10 35 5 34 4 41 -10
41 -9 0 -16 -4 -16 -9z"/>
<path d="M3076 713 c-3 -10 -18 -31 -32 -48 l-25 -30 5 33 c6 33 -7 45 -18 16
-11 -27 -6 -64 7 -64 21 0 87 79 87 104 0 14 -19 4 -24 -11z"/>
<path d="M3336 698 c-5 -21 -5 -46 0 -55 6 -15 8 -13 12 10 2 15 2 39 0 55 -4
25 -5 24 -12 -10z"/>
<path d="M3475 710 c-19 -21 -13 -42 7 -22 29 29 39 1 11 -30 -15 -16 -15 -18
0 -18 35 0 50 81 16 88 -8 1 -24 -6 -34 -18z"/>
<path d="M2030 711 c0 -17 30 -25 43 -12 8 8 8 11 0 11 -6 0 -18 3 -27 6 -9 3
-16 1 -16 -5z"/>
<path d="M3391 708 c-1 -9 -7 -18 -13 -21 -9 -3 -7 -7 5 -12 25 -10 32 1 19
27 -8 17 -11 19 -11 6z"/>
<path d="M2830 665 c-23 -53 -23 -55 -12 -55 13 0 51 90 41 96 -5 3 -18 -16
-29 -41z"/>
<path d="M2907 703 c-11 -10 -8 -51 3 -58 6 -3 10 1 10 10 0 12 6 15 21 10 20
-7 20 -6 4 19 -18 27 -27 31 -38 19z"/>
<path d="M966 663 c-26 -28 -42 -75 -31 -93 12 -19 22 -10 18 14 -9 44 52 108
72 77 11 -18 -18 -63 -37 -58 -11 3 -18 0 -18 -9 0 -19 35 -18 54 1 22 22 28
52 16 75 -15 28 -44 25 -74 -7z"/>
<path d="M1133 678 c-14 -19 -63 -106 -63 -112 0 -20 23 0 40 35 17 33 24 38
36 29 11 -10 19 -9 38 4 24 15 25 15 31 -14 8 -38 19 -38 42 0 20 35 33 39 33
10 0 -11 5 -20 11 -20 12 0 6 66 -7 79 -3 3 -18 -9 -34 -27 l-27 -33 -7 32 -6
32 -25 -27 c-27 -30 -46 -28 -38 4 6 22 -9 27 -24 8z"/>
<path d="M1381 664 c-12 -9 -20 -21 -18 -27 2 -7 1 -22 -4 -33 -6 -18 -5 -21
12 -17 13 4 19 14 19 32 0 15 5 32 12 39 19 19 4 23 -21 6z"/>
<path d="M2722 603 c-18 -32 -16 -51 4 -31 9 8 14 24 12 34 -4 18 -5 17 -16
-3z"/>
<path d="M2610 570 c0 -5 7 -10 16 -10 8 0 12 5 9 10 -3 6 -10 10 -16 10 -5 0
-9 -4 -9 -10z"/>
<path d="M1237 374 c-8 -8 1 -24 14 -24 5 0 9 7 9 15 0 15 -12 20 -23 9z"/>
</g>
</svg>
